<svg width="800" height="558" xmlns="http://www.w3.org/2000/svg">
 <title>chrome-flat-browser-2</title>

 <g>
  <title>background</title>
  <rect fill="none" id="canvas_background" height="560" width="802" y="-1" x="-1"/>
 </g>
 <g>
  <title>Layer 1</title>
  <path stroke="null" id="svg_1" fill="#ccc" d="m865.99979,632.001921l-801,0l0,-27.391201a5,7.608667 0 0 1 5.05,-7.608667l790.95,0a5,7.608667 0 0 1 5,7.608667l0,27.391201z"/>
  <path id="svg_2" fill="#e74c3c" opacity="0.71" d="m82.79979,609.501923a4.71,4.71 0 1 1 -4.71,-4.71a4.71,4.71 0 0 1 4.71,4.71z"/>
  <circle id="svg_3" fill="#f1c40f" opacity="0.71" r="4.71" cy="609.501923" cx="93.49979"/>
  <path id="svg_4" fill="#2ecc71" opacity="0.71" d="m113.61979,609.501923a4.71,4.71 0 1 1 -4.71,-4.71a4.71,4.71 0 0 1 4.71,4.71z"/>
  <path id="svg_5" fill="#e6e6e6" d="m231.99979,606.001923a2.9,2.9 0 0 0 -3,-2l-91,0a3,3 0 0 0 -3,2l-4,12.43c-0.34,1 -2,1.53 -2,1.53l109,0s-1.66,-0.44 -2,-1.53l-4,-12.43z"/>
  <rect stroke="#000000" rx="10" stroke-width="6" x="4.00008" id="svg_7" fill="none" height="550.000347" width="792.000014" y="3.99968"/>
  <rect stroke="#000000" rx="5" stroke-width="6" x="161.000915" id="svg_12" fill="none" height="38.999893" width="616.998973" y="18.000101"/>
  <ellipse ry="12.5" rx="13" id="svg_13" cy="35.937506" cx="39.499994" stroke-width="6" stroke="#000000" fill="none"/>
  <ellipse ry="12.5" rx="13" id="svg_17" cy="35.937506" cx="80.500234" stroke-width="6" stroke="#000000" fill="none"/>
  <ellipse ry="12.5" rx="13" id="svg_18" cy="35.937506" cx="121.500473" stroke-width="6" stroke="#000000" fill="none"/>
  <line stroke="#000000" stroke-linecap="null" stroke-linejoin="null" id="svg_20" y2="71.436267" x2="792.999976" y1="70.999901" x1="5.497685" fill-opacity="null" stroke-opacity="null" stroke-width="6" fill="none"/>
 </g>
</svg>